<svg width="47" height="30" viewBox="0 0 47 30" fill="none" xmlns="http://www.w3.org/2000/svg">
<path d="M42.791 0H4.20907C4.04838 0 3.88741 0 3.72701 0.000933962C3.59142 0.00189623 3.45614 0.00339623 3.32087 0.00707547C3.02584 0.0150283 2.72829 0.0323774 2.43695 0.084566C2.14096 0.13766 1.86553 0.224264 1.59682 0.360623C1.33266 0.494519 1.09082 0.669651 0.88124 0.878632C0.671568 1.08761 0.495858 1.32826 0.361549 1.59184C0.224713 1.85966 0.137767 2.13427 0.0848664 2.42952C0.0322245 2.71998 0.0147019 3.0165 0.00675124 3.31025C0.00311665 3.44508 0.00155776 3.57991 0.000674669 3.71471C-0.000262371 3.87492 4.99755e-05 4.03503 4.99755e-05 4.19553V25.7949C4.99755e-05 25.9554 -0.000262371 26.1152 0.000674669 26.2758C0.00155776 26.4106 0.00311665 26.5454 0.00675124 26.6802C0.0147019 26.9737 0.0322245 27.2702 0.0848664 27.5606C0.137767 27.856 0.224713 28.1305 0.361549 28.3983C0.495858 28.6619 0.671568 28.9028 0.88124 29.1115C1.09082 29.3208 1.33266 29.4959 1.59682 29.6295C1.86553 29.7662 2.14096 29.8529 2.43695 29.9059C2.72829 29.9578 3.02584 29.9754 3.32087 29.9834C3.45614 29.9864 3.59142 29.9883 3.72701 29.9889C3.88741 29.9901 4.04838 29.9901 4.20907 29.9901H42.791C42.9514 29.9901 43.1124 29.9901 43.2727 29.9889C43.408 29.9883 43.5433 29.9864 43.6792 29.9834C43.9736 29.9754 44.2711 29.9578 44.5631 29.9059C44.8587 29.8529 45.1342 29.7662 45.4029 29.6295C45.6674 29.4959 45.9085 29.3208 46.1185 29.1115C46.3279 28.9028 46.5036 28.6619 46.6382 28.3983C46.7754 28.1305 46.8622 27.856 46.9149 27.5606C46.9675 27.2702 46.9846 26.9737 46.9926 26.6802C46.9963 26.5454 46.9981 26.4106 46.9988 26.2758C47 26.1152 47 25.9554 47 25.7949V4.19553C47 4.03503 47 3.87492 46.9988 3.71471C46.9981 3.57991 46.9963 3.44508 46.9926 3.31025C46.9846 3.0165 46.9675 2.71998 46.9149 2.42952C46.8622 2.13427 46.7754 1.85966 46.6382 1.59184C46.5036 1.32826 46.3279 1.08761 46.1185 0.878632C45.9085 0.669651 45.6674 0.494519 45.4029 0.360623C45.1342 0.224264 44.8587 0.13766 44.5631 0.084566C44.2711 0.0323774 43.9736 0.0150283 43.6792 0.00707547C43.5433 0.00339623 43.408 0.00189623 43.2727 0.000933962C43.1124 0 42.9514 0 42.791 0V0Z" fill="black"/>
<path d="M42.7935 0.999512L43.2682 1.00042C43.3968 1.00132 43.5253 1.00271 43.6547 1.00622C43.8796 1.01228 44.1427 1.02442 44.3879 1.06823C44.6011 1.10649 44.7799 1.16468 44.9515 1.25174C45.1209 1.33752 45.2761 1.44994 45.4116 1.58479C45.5477 1.72056 45.6606 1.87548 45.7478 2.04617C45.8347 2.21584 45.8927 2.39318 45.9309 2.6072C45.9747 2.84896 45.9868 3.11188 45.993 3.33742C45.9965 3.46472 45.9982 3.59202 45.9988 3.72235C46 3.87996 46 4.03749 46 4.19542V25.7948C46 25.9527 46 26.11 45.9988 26.2709C45.9982 26.3982 45.9965 26.5255 45.993 26.653C45.9868 26.8782 45.9747 27.141 45.9303 27.3856C45.8927 27.5967 45.8347 27.7741 45.7474 27.9446C45.6604 28.1149 45.5476 28.2696 45.4122 28.4045C45.2759 28.5404 45.1212 28.6525 44.9498 28.739C44.7795 28.8257 44.601 28.8838 44.3899 28.9217C44.1397 28.9661 43.8656 28.9783 43.6591 28.9839C43.5292 28.9868 43.3999 28.9886 43.2675 28.9892C43.1097 28.9904 42.9513 28.9904 42.7935 28.9904H4.20655C4.20444 28.9904 4.2024 28.9904 4.20027 28.9904C4.04425 28.9904 3.88791 28.9904 3.72905 28.9892C3.59952 28.9886 3.47028 28.9869 3.34532 28.984C3.13415 28.9783 2.85984 28.9661 2.61166 28.922C2.39876 28.8838 2.22027 28.8257 2.04772 28.7379C1.87793 28.6521 1.72335 28.5401 1.587 28.404C1.45171 28.2694 1.33928 28.1152 1.25235 27.9446C1.16534 27.7743 1.10712 27.5964 1.06884 27.3828C1.02459 27.1387 1.01244 26.8769 1.00636 26.6532C1.0029 26.5252 1.00145 26.3971 1.00062 26.2698L1 25.894L1.00003 25.7948V4.19542L1 4.09619L1.0006 3.72116C1.00145 3.5931 1.0029 3.46506 1.00636 3.33711C1.01244 3.11321 1.02459 2.85136 1.06921 2.60519C1.10715 2.39352 1.16534 2.21562 1.25281 2.04442C1.33905 1.8752 1.45168 1.72073 1.58769 1.58522C1.72315 1.45016 1.87824 1.33789 2.04911 1.25129C2.21982 1.16465 2.39864 1.10649 2.61155 1.06831C2.85686 1.02439 3.12015 1.01228 3.34563 1.00619C3.47417 1.00271 3.6027 1.00132 3.73027 1.00045L4.20655 0.999512H42.7935" fill="white"/>
<path d="M12.7938 10.0868C13.1951 9.58514 13.4674 8.91151 13.3956 8.22314C12.8082 8.25234 12.0914 8.61052 11.6764 9.1126C11.3037 9.54257 10.9739 10.2444 11.0599 10.9039C11.7193 10.9611 12.3781 10.5745 12.7938 10.0868" fill="black"/>
<path d="M13.388 11.0326C12.4305 10.9756 11.6163 11.5759 11.159 11.5759C10.7014 11.5759 10.0012 11.0614 9.24376 11.0752C8.25796 11.0897 7.34324 11.6469 6.84299 12.533C5.81406 14.3057 6.57146 16.9353 7.57204 18.3791C8.05795 19.0933 8.64355 19.8798 9.41517 19.8516C10.1442 19.823 10.43 19.3797 11.3162 19.3797C12.2017 19.3797 12.4591 19.8516 13.2309 19.8373C14.0312 19.823 14.5315 19.1226 15.0174 18.4076C15.5748 17.5934 15.803 16.8072 15.8174 16.764C15.803 16.7497 14.2741 16.1634 14.26 14.4055C14.2455 12.9335 15.4603 12.2333 15.5175 12.1899C14.8315 11.1757 13.7596 11.0614 13.388 11.0326" fill="black"/>
<path d="M21.7259 9.04053C23.8071 9.04053 25.2564 10.4746 25.2564 12.5625C25.2564 14.6579 23.7773 16.0994 21.6737 16.0994H19.3693V19.7626H17.7043V9.04053H21.7259V9.04053Z" fill="black"/>
<path d="M19.3691 14.7028H21.2795C22.7291 14.7028 23.5541 13.9227 23.5541 12.5703C23.5541 11.2181 22.7291 10.4453 21.287 10.4453H19.3691L19.3691 14.7028Z" fill="white"/>
<path fill-rule="evenodd" clip-rule="evenodd" d="M28.598 15.2301C26.7395 15.3341 25.6914 16.1737 25.6914 17.541C25.6914 18.9453 26.7619 19.8964 28.2932 19.8964C29.3189 19.8964 30.3077 19.3466 30.761 18.4772H30.798V19.7626H32.3368V14.3756C32.3368 12.8078 31.1252 11.8047 29.2297 11.8047C27.297 11.8047 26.0929 12.8449 26.0037 14.2568H27.5201C27.6612 13.5582 28.241 13.1125 29.1704 13.1125C30.1514 13.1125 30.7387 13.6326 30.7387 14.502V15.1038L28.598 15.2301ZM30.7387 16.2184V16.8351C30.7387 17.853 29.8615 18.6258 28.7391 18.6258C27.8768 18.6258 27.3119 18.1799 27.3119 17.4964C27.3119 16.8277 27.8544 16.4042 28.8134 16.3372L30.7387 16.2184Z" fill="black"/>
<path d="M33.7895 22.6382V21.3378C33.9082 21.3675 34.1757 21.3675 34.3096 21.3675C35.0529 21.3675 35.4544 21.0555 35.6996 20.253C35.6996 20.2381 35.8409 19.7775 35.8409 19.77L33.0164 11.9458H34.7555L36.733 18.3063H36.7626L38.7401 11.9458H40.4348L37.5059 20.1712C36.8371 22.066 36.064 22.6753 34.4436 22.6753C34.3096 22.6753 33.9082 22.6604 33.7895 22.6382Z" fill="black"/>
</svg>
