<svg width="20" height="20" viewBox="0 0 20 20" fill="none" xmlns="http://www.w3.org/2000/svg">
<g id="icons">
<path id="Vector" d="M15.8334 8.63636C15.8334 12.5 10 17.5 10 17.5C10 17.5 4.16669 12.5 4.16669 8.63636C4.16669 7.0089 4.78127 5.44809 5.87523 4.2973C6.96919 3.14651 8.45292 2.5 10 2.5C11.5471 2.5 13.0308 3.14651 14.1248 4.2973C15.2188 5.44809 15.8334 7.0089 15.8334 8.63636Z" stroke="white" stroke-width="2" stroke-linecap="round" stroke-linejoin="round"/>
<path id="Vector_2" d="M9.99998 9.16666C10.9205 9.16666 11.6666 8.42047 11.6666 7.49999C11.6666 6.57952 10.9205 5.83333 9.99998 5.83333C9.07951 5.83333 8.33331 6.57952 8.33331 7.49999C8.33331 8.42047 9.0795 9.16666 9.99998 9.16666Z" stroke="white" stroke-width="2" stroke-linecap="round" stroke-linejoin="round"/>
</g>
</svg>
