<?xml version="1.0" encoding="UTF-8"?>
<svg width="24px" height="24px" viewBox="0 0 24 24" version="1.1" xmlns="http://www.w3.org/2000/svg" xmlns:xlink="http://www.w3.org/1999/xlink">
    <title>Icons/logos/ic_app_store_icon_blue</title>
    <defs>
        <linearGradient x1="50%" y1="100%" x2="50%" y2="0%" id="linearGradient-1">
            <stop stop-color="#2064F0" offset="0%"></stop>
            <stop stop-color="#20D8FD" offset="100%"></stop>
        </linearGradient>
    </defs>
    <g id="Icons/logos/ic_app_store_icon_blue" stroke="none" stroke-width="1" fill="none" fill-rule="evenodd">
        <g id="Icons/ic_app_store_icon_blue">
            <path d="M0,16.68 L0,7.32 C0,5 0.08,3.12 1.6,1.6 C3.12,0.08 5,0 7.32,0 L16.68,0 C19,0 20.88,0.08 22.4,1.6 C23.92,3.12 24,5 24,7.32 L24,16.68 C24,19 23.92,20.88 22.4,22.4 C20.88,23.92 19,24 16.68,24 L7.32,24 C5,24 3.12,23.92 1.6,22.4 C0.08,20.88 0,19 0,16.68 Z" id="app-icon-base" fill="url(#linearGradient-1)"></path>
            <g id="icon" transform="translate(3, 3.9)" fill="#FFFFFF">
                <path d="M3.05018351,12.9476412 C3.62080206,12.9476412 3.97474021,13.0777237 4.29985361,13.2293938 C4.5556268,13.3487753 4.74966804,13.4935794 4.82074021,13.549868 C4.83793608,13.5634763 4.84238969,13.5874144 4.83156495,13.606466 L3.77822474,15.4497649 C3.54991546,15.8492907 3.13245155,16.0732701 2.70298763,16.0732701 C2.49614227,16.0732701 2.28657526,16.0213732 2.09389485,15.9120742 C1.49989485,15.5752701 1.30659588,14.7879093 1.64544124,14.1950845 L2.0388433,13.5065691 C2.1370701,13.3346722 2.27983299,13.1915381 2.45457526,13.0985072 C2.60599794,13.0178474 2.80752371,12.9476412 3.05018351,12.9476412 Z M10.8021588,4.51398557 L14.0446948,10.1883773 L16.7492722,10.1883773 C17.4325299,10.1883773 17.9863856,10.742233 17.9863856,11.4254907 C17.9863856,12.1087485 17.4325299,12.6626041 16.7492722,12.6626041 L15.4585918,12.6626041 L16.3068186,14.1470165 C16.6457258,14.7402742 16.4396227,15.4959649 15.8464268,15.834934 C15.6528186,15.945532 15.4418907,15.9981711 15.2338082,15.9981711 C14.8043443,15.9981711 14.3869423,15.7742536 14.1585093,15.3746041 L12.6087773,12.6626041 L11.1949423,10.1883773 C11.1949423,10.1883773 10.9525876,9.76426116 10.6806449,9.28835575 L10.45586,8.89497514 C10.4311095,8.85166057 10.4065939,8.80875718 10.3824733,8.76654472 L10.2344248,8.50744931 C10.1646934,8.38541305 10.1025809,8.2767083 10.0533959,8.19062474 C9.74189072,7.64555258 9.72382887,6.98703711 9.84778763,6.23858351 C9.92807629,5.75363505 10.0760351,5.34953196 10.2784887,5.04841856 C10.4062825,4.85833608 10.5696433,4.64029485 10.6728186,4.50526392 C10.7066536,4.46103711 10.7745711,4.46561443 10.8021588,4.51398557 Z M8.61438557,0.68536701 L8.98984948,1.34233608 L9.32238557,0.760459794 C9.66135464,0.167263918 10.4169835,-0.0388391753 11.0103031,0.300191753 C11.603499,0.639098969 11.8096021,1.39485155 11.470633,1.98804742 L10.4147567,3.83592371 L8.98984948,6.32938763 L6.78469485,10.1883773 L9.71312784,10.1883773 C10.1297258,10.1883773 10.6157876,10.2605629 10.910901,10.6338 C11.2060763,11.0070371 11.3101794,11.3628928 11.3101794,11.796934 C11.3101794,12.2309134 11.2841381,12.6626041 10.5463856,12.6626041 L1.23710722,12.6626041 C0.553849485,12.6626041 -6.18556678e-06,12.1087485 -6.18556678e-06,11.4254907 C-6.18556678e-06,10.742233 0.553849485,10.1883773 1.23710722,10.1883773 L3.93500412,10.1883773 L7.56494227,3.83592371 L6.46613814,1.91295464 C6.12716907,1.31969691 6.33327216,0.564006186 6.92646804,0.225037113 C7.51966392,-0.113870103 8.27535464,0.0921092784 8.61438557,0.68536701 Z" id="app-store"></path>
            </g>
        </g>
    </g>
</svg>