<?xml version="1.0" encoding="UTF-8"?>
<svg width="22px" height="24px" viewBox="0 0 22 24" version="1.1" xmlns="http://www.w3.org/2000/svg" xmlns:xlink="http://www.w3.org/1999/xlink">
    <title>Icons/logos/ic_googleplay_icon</title>
    <defs>
        <linearGradient x1="61.2996733%" y1="4.9481245%" x2="25.875588%" y2="71.9074222%" id="linearGradient-1">
            <stop stop-color="#00A0FF" offset="0%"></stop>
            <stop stop-color="#00A1FF" offset="1%"></stop>
            <stop stop-color="#00BEFF" offset="26%"></stop>
            <stop stop-color="#00D2FF" offset="51%"></stop>
            <stop stop-color="#00DFFF" offset="76%"></stop>
            <stop stop-color="#00E3FF" offset="100%"></stop>
        </linearGradient>
        <linearGradient x1="107.684729%" y1="50%" x2="-130.640394%" y2="50%" id="linearGradient-2">
            <stop stop-color="#FFE000" offset="0%"></stop>
            <stop stop-color="#FFBD00" offset="41%"></stop>
            <stop stop-color="#FFA500" offset="78%"></stop>
            <stop stop-color="#FF9C00" offset="100%"></stop>
        </linearGradient>
        <linearGradient x1="86.219293%" y1="31.4190466%" x2="-50.1497903%" y2="133.700267%" id="linearGradient-3">
            <stop stop-color="#FF3A44" offset="0%"></stop>
            <stop stop-color="#C31162" offset="100%"></stop>
        </linearGradient>
        <linearGradient x1="-18.7537448%" y1="-10.1868261%" x2="42.1210306%" y2="35.4912926%" id="linearGradient-4">
            <stop stop-color="#32A071" offset="0%"></stop>
            <stop stop-color="#2DA771" offset="7%"></stop>
            <stop stop-color="#15CF74" offset="48%"></stop>
            <stop stop-color="#06E775" offset="80%"></stop>
            <stop stop-color="#00F076" offset="100%"></stop>
        </linearGradient>
    </defs>
    <g id="Icons/logos/ic_googleplay_icon" stroke="none" stroke-width="1" fill="none" fill-rule="evenodd">
        <g id="Icons/ic_googleplay_icon" fill-rule="nonzero">
            <g id="Group-2">
                <path d="M0.435149169,0.375785892 C0.135936616,0.740720012 -0.01168127,1.20412423 0.0221358357,1.67232336 L0.0221358357,22.1576153 C-0.00644313813,22.6282632 0.147978142,23.0919481 0.453922502,23.4541528 L0.519629169,23.5189797 L12.1309358,12.0538841 L12.1309358,11.7853156 L0.500855836,0.310959018 L0.435149169,0.375785892 Z" id="Shape" fill="url(#linearGradient-1)"></path>
                <path d="M15.9794692,15.8786696 L12.1309358,12.0538841 L12.1309358,11.7853156 L15.9794692,7.9512691 L16.0639492,7.99757401 L20.6728025,10.581388 C21.9869358,11.3130055 21.9869358,12.5169332 20.6728025,13.2578117 L16.0827225,15.8323647 L15.9794692,15.8786696 Z" id="Shape" fill="url(#linearGradient-2)"></path>
                <path d="M16.0921092,15.8323647 L12.1309358,11.9149694 L0.435149169,23.4541528 C0.987758878,23.9334294 1.80788249,23.95677 2.38757584,23.5097187 L16.1014958,15.8231037" id="Shape" fill="url(#linearGradient-3)"></path>
                <path d="M16.0921092,8.00683499 L2.37818917,0.32022 C1.79849582,-0.126831313 0.978372211,-0.103490667 0.425762502,0.375785892 L12.1309358,11.9149694 L16.0921092,8.00683499 Z" id="Shape" fill="url(#linearGradient-4)"></path>
                <path d="M15.9794692,15.7397549 L2.37818917,23.380065 C1.82159601,23.790638 1.057449,23.790638 0.500855836,23.380065 L0.500855836,23.380065 L0.435149169,23.4448918 L0.435149169,23.4448918 L0.500855836,23.5097187 L0.500855836,23.5097187 C1.05640175,23.9233875 1.82264326,23.9233875 2.37818917,23.5097187 L16.0921092,15.8231037 L15.9794692,15.7397549 Z" id="Shape" fill="#000000" opacity="0.2"></path>
                <path d="M0.435149169,23.3244991 C0.129204808,22.9622943 -0.0252164715,22.4986094 0.00336250235,22.0279616 L0.00336250235,22.1668763 C-0.0252164715,22.6375241 0.129204808,23.1012091 0.435149169,23.4634138 L0.500855836,23.3985869 L0.435149169,23.3244991 Z" id="Shape" fill="#000000" opacity="0.12"></path>
                <path d="M20.6728025,13.118897 L15.9794692,15.7397549 L16.0639492,15.8231037 L20.6728025,13.2485507 C21.2050923,13.0018504 21.5630982,12.4932248 21.6114692,11.9149694 L21.6114692,11.9149694 C21.5044888,12.4380648 21.1578172,12.8827036 20.6728025,13.118897 Z" id="Shape" fill="#000000" opacity="0.12"></path>
                <path d="M2.37818917,0.449873747 L20.6728025,10.7110417 C21.1578172,10.9472351 21.5044888,11.391874 21.6114692,11.9149694 L21.6114692,11.9149694 C21.5630982,11.336714 21.2050923,10.8280883 20.6728025,10.581388 L2.37818917,0.32022 C1.0734425,-0.420658553 0.0221358357,0.190566254 0.0221358357,1.67232336 L0.0221358357,1.81123809 C0.0221358357,0.329480982 1.0734425,-0.281743824 2.37818917,0.449873747 Z" id="Shape" fill="#FFFFFF" opacity="0.25"></path>
            </g>
        </g>
    </g>
</svg>