<?xml version="1.0" encoding="UTF-8"?>
<svg width="66px" height="44px" viewBox="0 0 66 44" version="1.1" xmlns="http://www.w3.org/2000/svg" xmlns:xlink="http://www.w3.org/1999/xlink">
    <title>Icons/logos/ic_mastercard</title>
    <g id="Icons/logos/ic_mastercard" stroke="none" stroke-width="1" fill="none" fill-rule="evenodd">
        <g transform="translate(0, 0.25)" fill-rule="nonzero">
            <g id="Group" opacity="0" fill="#FFFFFF">
                <rect id="Rectangle" x="0" y="0" width="65.695" height="43.45"></rect>
            </g>
            <rect id="Rectangle" fill="#FF5F00" x="24.185" y="7.57" width="17.33" height="28.305"></rect>
            <path d="M25.97,21.725 C25.9656487,16.2025007 28.5008044,10.9846893 32.845,7.575 C25.4648952,1.77502589 14.8667687,2.61984228 8.49869895,9.5157349 C2.13062924,16.4116275 2.13062924,27.0433725 8.49869895,33.9392651 C14.8667687,40.8351577 25.4648952,41.6799741 32.845,35.88 C28.4994219,32.4692279 25.9641113,27.2492539 25.97,21.725 Z" id="Path" fill="#EB001B"></path>
            <path d="M60.25,33.63 L60.25,32.4285714 L60.5,32.4285714 L60.5,32.18 L59.905,32.18 L59.905,32.4285714 L60.14,32.4285714 L60.14,33.63 L60.25,33.63 Z M61.405,33.63 L61.405,32.18 L61.225,32.18 L61.015,33.2157143 L60.805,32.18 L60.625,32.18 L60.625,33.63 L60.755,33.63 L60.755,32.5321429 L60.95,33.4746429 L61.085,33.4746429 L61.28,32.5321429 L61.28,33.63 L61.405,33.63 Z" id="Shape" fill="#F79E1B"></path>
            <path d="M61.97,21.725 C61.97,28.6166902 58.0347105,34.9033252 51.8358777,37.9149469 C45.6370449,40.9265687 38.2627949,40.1344474 32.845,35.875 C37.1873001,32.4624159 39.7226467,27.2452983 39.7226467,21.7225 C39.7226467,16.1997017 37.1873001,10.9825841 32.845,7.57 C38.2627949,3.31055259 45.6370449,2.51843129 51.8358777,5.53005306 C58.0347105,8.54167483 61.97,14.8283098 61.97,21.72 L61.97,21.725 Z" id="Path" fill="#F79E1B"></path>
        </g>
    </g>
</svg>