<?xml version="1.0" encoding="UTF-8"?>
<svg width="66px" height="22px" viewBox="0 0 66 22" version="1.1" xmlns="http://www.w3.org/2000/svg" xmlns:xlink="http://www.w3.org/1999/xlink">
    <title>Icons/logos/ic_visa</title>
    <defs>
        <path d="M34.0451235,14.7617476 C34.0076187,11.8047923 36.6803274,10.1545822 38.6937416,9.17353624 C40.762426,8.16682913 41.4572513,7.52135222 41.4493556,6.62123764 C41.4335641,5.24343066 39.7991455,4.63545853 38.2693455,4.6117713 C35.6005847,4.57031866 34.0490714,5.33225776 32.8153617,5.90864692 L31.8540551,1.41004792 C33.0917127,0.839580565 35.3834518,0.34214882 37.7600701,0.320435529 C43.3384118,0.320435529 46.9882186,3.07407555 47.0079579,7.34369803 C47.0296712,12.762151 39.5129248,13.0621892 39.5642472,15.484208 C39.5820126,16.218512 40.2827597,17.0021644 41.8184815,17.2015319 C42.5784467,17.3022026 44.6767401,17.3791861 47.0553324,16.2836519 L47.9890039,20.6361797 C46.7098937,21.1020284 45.0656054,21.5481379 43.0186343,21.5481379 C37.7679659,21.5481379 34.0747325,18.7569931 34.0451235,14.7617476 M56.9605407,21.1730901 C55.94199,21.1730901 55.083328,20.5789355 54.7003846,19.6669773 L46.7316069,0.64021308 L52.3060008,0.64021308 L53.4153525,3.70573491 L60.2274039,3.70573491 L60.8709069,0.64021308 L65.7840324,0.64021308 L61.4966445,21.1730901 L56.9605407,21.1730901 M57.7402452,15.6263314 L59.3490026,7.91613932 L54.9431786,7.91613932 L57.7402452,15.6263314 M27.2863684,21.1730901 L22.8923879,0.64021308 L28.2042484,0.64021308 L32.5962549,21.1730901 L27.2863684,21.1730901 M19.4281311,21.1730901 L13.8991378,7.1976268 L11.6626689,19.0807185 C11.4001355,20.4072032 10.3638193,21.1730901 9.21301495,21.1730901 L0.174364302,21.1730901 L0.0480324304,20.5769616 C1.9035318,20.1742788 4.01169491,19.524854 5.28883118,18.8300287 C6.07050963,18.4056326 6.29356434,18.0345327 6.55017596,17.0258516 L10.7862415,0.64021308 L16.4001141,0.64021308 L25.0064729,21.1730901 L19.4281311,21.1730901" id="path-1"></path>
    </defs>
    <g id="Icons/logos/ic_visa" stroke="none" stroke-width="1" fill="none" fill-rule="evenodd">
        <g id="Icons/logos/ic_mastercard" transform="translate(0, -0.956)">
            <g id="g10269-Clipped" transform="translate(33.084, 11.8121) scale(-1, 1) rotate(-180) translate(-33.084, -11.8121)translate(0.084, 0.8121)">
                <mask id="mask-2" fill="white">
                    <use xlink:href="#path-1"></use>
                </mask>
                <g id="path10273"></g>
                <g id="g10269" mask="url(#mask-2)">
                    <g transform="translate(-7.2378, -21.7133)" id="g10275">
                        <g transform="translate(0.402, 0.5895)">
                            <polyline id="path10283" fill="#254AA5" fill-rule="nonzero" points="0 40.1366885 64.7694295 63.989725 79.5042 23.9787104 14.7354285 0.125673893"></polyline>
                        </g>
                    </g>
                </g>
            </g>
        </g>
    </g>
</svg>