<svg width="90" height="37" xmlns="http://www.w3.org/2000/svg">
  <path d="M13.9 20.294a7.272 7.272 0 01-1.49-4.407c0-4.048 3.305-7.34 7.368-7.34a7.37 7.37 0 016.027 3.13l6.943-5.027A15.939 15.939 0 0019.778 0C10.971 0 3.831 7.112 3.831 15.887c0 3.534 1.16 6.798 3.12 9.436l6.948-5.029zm11.898-8.618l-6.949 5.03a7.276 7.276 0 011.49 4.407c0 4.047-3.305 7.34-7.368 7.34a7.368 7.368 0 01-6.026-3.13L0 30.35A15.941 15.941 0 0012.97 37c8.808 0 15.947-7.112 15.947-15.887 0-3.534-1.16-6.799-3.12-9.437zm9.779 13.647l6.948-5.029a7.272 7.272 0 01-1.49-4.407c0-4.048 3.306-7.34 7.368-7.34a7.368 7.368 0 016.027 3.13l6.945-5.027A15.94 15.94 0 0048.403 0c-8.806 0-15.945 7.112-15.945 15.887 0 3.534 1.16 6.798 3.119 9.436zm18.848-13.647l-6.95 5.03a7.277 7.277 0 011.49 4.407c0 4.047-3.305 7.34-7.368 7.34a7.368 7.368 0 01-6.026-3.13l-6.945 5.027A15.94 15.94 0 0041.596 37c8.808 0 15.947-7.112 15.947-15.887 0-3.534-1.16-6.799-3.118-9.437zM77.03 0c-8.807 0-15.947 7.112-15.947 15.887 0 3.534 1.16 6.798 3.12 9.436l6.948-5.029a7.278 7.278 0 01-1.49-4.407c0-4.048 3.306-7.34 7.37-7.34 2.49 0 4.692 1.24 6.025 3.13L90 6.65A15.939 15.939 0 0077.03 0zm-.929 16.706a7.27 7.27 0 011.49 4.407c0 4.047-3.304 7.34-7.367 7.34a7.369 7.369 0 01-6.027-3.13l-6.945 5.027A15.942 15.942 0 0070.224 37c8.806 0 15.946-7.112 15.946-15.887a15.78 15.78 0 00-3.12-9.437l-6.949 5.03z" fill="#F4B72D" fill-rule="evenodd"/>
</svg>
