<svg width="512" height="366" viewBox="0 0 512 366" fill="none" xmlns="http://www.w3.org/2000/svg">
<mask id="mask0" mask-type="alpha" maskUnits="userSpaceOnUse" x="0" y="0" width="512" height="366">
<path d="M475.429 0H36.5714C16.3736 0 0 16.3736 0 36.5714V329.143C0 349.341 16.3736 365.714 36.5714 365.714H475.429C495.626 365.714 512 349.341 512 329.143V36.5714C512 16.3736 495.626 0 475.429 0Z" fill="white"/>
</mask>
<g mask="url(#mask0)">
<path d="M475.429 0H36.5714C16.3736 0 0 16.3736 0 36.5714V329.143C0 349.341 16.3736 365.714 36.5714 365.714H475.429C495.626 365.714 512 349.341 512 329.143V36.5714C512 16.3736 495.626 0 475.429 0Z" fill="#A6264C"/>
<path fill-rule="evenodd" clip-rule="evenodd" d="M0 365.714H182.857L146.286 341.333L182.857 316.952L146.286 292.571L182.857 268.19L146.286 243.81L182.857 219.429L146.286 195.048L182.857 170.667L146.286 146.286L182.857 121.905L146.286 97.5238L182.857 73.1429L146.286 48.7619L182.857 24.381L146.286 0H0V365.714Z" fill="white"/>
</g>
<mask id="mask1" mask-type="alpha" maskUnits="userSpaceOnUse" x="0" y="0" width="512" height="366">
<path d="M475.429 0H36.5714C16.3736 0 0 16.3736 0 36.5714V329.143C0 349.341 16.3736 365.714 36.5714 365.714H475.429C495.626 365.714 512 349.341 512 329.143V36.5714C512 16.3736 495.626 0 475.429 0Z" fill="white"/>
</mask>
<g mask="url(#mask1)">
<path d="M466.286 9.14285H45.7143C25.5165 9.14285 9.14288 25.5164 9.14288 45.7143V320C9.14288 340.198 25.5165 356.571 45.7143 356.571H466.286C486.484 356.571 502.857 340.198 502.857 320V45.7143C502.857 25.5164 486.484 9.14285 466.286 9.14285Z" stroke="#A6264C" stroke-width="30"/>
</g>
</svg>
