<svg width="512" height="366" viewBox="0 0 512 366" fill="none" xmlns="http://www.w3.org/2000/svg">
<mask id="mask0" mask-type="alpha" maskUnits="userSpaceOnUse" x="0" y="0" width="512" height="366">
<path d="M477.867 0H34.1333C15.282 0 0 15.282 0 34.1333V331.571C0 350.423 15.282 365.705 34.1333 365.705H477.867C496.718 365.705 512 350.423 512 331.571V34.1333C512 15.282 496.718 0 477.867 0Z" fill="white"/>
</mask>
<g mask="url(#mask0)">
<path d="M477.867 0H34.1333C15.282 0 0 15.282 0 34.1333V331.571C0 350.423 15.282 365.705 34.1333 365.705H477.867C496.718 365.705 512 350.423 512 331.571V34.1333C512 15.282 496.718 0 477.867 0Z" fill="white"/>
<path fill-rule="evenodd" clip-rule="evenodd" d="M0 0H512V365.705H0V0Z" fill="#128C4B"/>
<path fill-rule="evenodd" clip-rule="evenodd" d="M217.435 81.1349C217.162 81.1349 216.684 81.3056 216.07 81.681C214.636 82.6026 211.837 85.5381 211.735 88.9173C211.667 90.8288 211.291 90.8288 212.554 92.0234C213.442 93.3205 214.329 93.2181 216.172 92.2624C216.617 91.9756 216.998 91.6003 217.292 91.1599C217.585 90.7195 217.785 90.2233 217.879 89.7024C218.357 87.552 215.626 90.7264 215.285 88.337C214.67 86.0842 216.411 85.1626 218.05 83.0122C218.084 81.9882 218.118 81.1349 217.435 81.1349V81.1349ZM243.923 81.2714C243.411 81.3397 242.796 81.9882 241.909 83.5584C241.294 85.1968 238.632 87.6544 240.543 92.7744C242.148 96.017 242.796 101.308 242.079 107.144C240.987 108.851 240.714 109.397 239.315 111.07C237.267 113.22 235.116 112.674 233.444 111.855C231.908 110.831 230.679 110.285 229.962 106.94C230.099 101.615 230.406 92.9109 229.416 91.0677C227.982 88.2005 225.627 89.2245 224.637 90.0778C219.756 94.5152 217.367 102.025 215.899 107.998C214.534 112.333 213.1 111.07 212.11 109.329C209.653 107.008 209.482 89.0538 206.513 92.0234C201.768 105.574 209.243 120.388 214.397 118.989C218.152 120.491 220.541 113.391 222.043 105.643C223.067 103.458 223.886 103.185 224.433 104.311C224.296 114.654 225.149 116.941 227.846 120.115C229.379 121.473 231.347 122.237 233.395 122.268C235.443 122.299 237.434 121.596 239.007 120.286L243.615 115.678C244.639 114.586 246.005 114.551 247.438 115.473C248.872 116.77 248.667 118.989 251.705 120.525C254.231 121.549 259.658 120.764 260.921 118.579C262.628 115.678 263.037 114.688 263.822 113.562C265.017 111.957 267.099 112.674 267.099 113.186C266.894 114.074 265.7 114.961 266.519 116.599C267.953 117.658 268.294 116.941 269.147 116.736C272.151 115.302 274.404 108.749 274.404 108.749C274.54 106.359 273.141 106.53 272.253 107.042C271.127 107.725 271.059 107.964 269.864 108.681C268.43 108.885 265.563 109.841 264.164 107.657C262.73 105.028 262.696 101.376 261.604 98.7477C261.604 98.5429 259.692 94.5834 261.467 94.3104C262.355 94.481 264.3 94.993 264.607 93.3546C265.529 91.7845 262.559 87.3472 260.511 85.0944C258.805 83.1488 256.347 82.9098 254.026 84.8896C252.354 86.3914 252.593 88.0981 252.285 89.7024C252.014 90.8389 252.011 92.0232 252.278 93.1609C252.545 94.2986 253.073 95.3584 253.821 96.256C255.46 99.4986 258.429 103.663 257.474 109.5C257.474 109.5 255.733 112.299 252.695 111.957C251.398 111.65 249.316 111.104 248.258 102.98C247.404 96.8362 248.428 88.2005 245.834 84.1728C245.22 82.6368 244.742 81.169 243.889 81.2714H243.923ZM235.526 81.9541C234.741 81.9882 233.887 82.9098 233.137 84.6848C232.556 86.0501 231.771 93.1157 231.908 93.1157C231.43 95.232 234.126 96.1194 235.321 93.4229C237.164 88.4394 237.198 86.3232 237.301 84.2069C237.028 82.6368 236.345 81.8517 235.526 81.92V81.9541ZM266.485 82.5002C265.666 82.5685 265.017 83.0464 264.778 84.2069C264.478 86.4503 264.594 88.7297 265.119 90.9312C265.461 92.5013 267.748 95.1296 268.874 96.6314C274.199 103.834 279.353 111.07 284.337 118.579C285.122 124.143 285.702 129.57 286.043 134.963C286.862 146.876 287.135 161.655 286.384 174.148C288.603 174.251 292.187 170.564 293.416 165.171C294.235 157.696 293.143 142.507 293.075 138.103C292.999 135.997 292.897 133.892 292.767 131.789C298.57 141.278 304.168 151.279 309.698 162.304C311.711 161.348 311.268 150.016 310.073 148.446C305.67 138.923 299.56 129.57 297.614 125.952C295.742 122.853 293.773 119.814 291.709 116.838C291.413 112.62 290.923 108.417 290.242 104.243C289.354 97.9285 292.836 104.926 292.358 101.274C291.231 94.9589 287.75 90.6922 283.62 84.8896C282.289 83.0122 282.323 82.6368 280.275 85.3674C279.252 87.6343 278.954 90.1613 279.421 92.6037C278.749 91.6151 278.032 90.6583 277.271 89.7365L270.547 84.0362C269.591 83.3536 267.816 82.3637 266.451 82.5002H266.485ZM358.167 83.4218C357.757 83.3877 357.348 83.5584 356.87 84.2752C356.268 84.7961 355.785 85.4409 355.455 86.1655C355.125 86.8901 354.956 87.6774 354.958 88.4736C355.197 91.7845 355.778 95.1978 355.982 98.5429L356.255 99.8741C355.989 99.5184 355.704 99.1766 355.402 98.8501C348.917 92.0234 358.372 97.7578 354.173 92.5013C350.589 88.576 349.531 87.313 346.493 84.992C344.957 83.968 344.036 82.0906 343.524 85.3333C343.267 88.1473 343.199 90.9753 343.319 93.7984C343.319 95.1296 344.684 97.6213 345.845 99.089C350.18 104.414 354.617 110.08 359.054 115.985C360.01 128.068 360.249 139.093 361.205 151.177C361.068 156.331 359.498 163.191 357.962 163.84C357.962 163.84 355.675 165.205 354.139 163.703C353.013 163.26 348.541 156.262 348.541 156.262C346.254 154.146 344.752 154.761 343.08 156.262C338.643 160.597 336.595 168.721 333.523 174.285C332.772 175.548 330.553 176.606 328.061 174.217C321.815 165.683 325.467 153.498 324.716 156.604C319.118 162.884 321.61 173.329 322.873 175.548C324.682 179.2 326.184 181.555 329.768 183.398C333.011 185.788 335.571 184.286 336.936 182.613C340.213 179.2 340.247 170.53 341.783 168.823C342.875 165.649 345.572 166.195 346.903 167.595C348.092 169.302 349.687 170.686 351.545 171.622C354.617 174.353 358.269 174.797 361.853 172.339C364.444 170.868 366.392 168.482 367.315 165.649C368.885 161.553 368.134 139.913 367.792 127.863C370.079 131.106 372.366 134.451 374.619 137.796C375.643 148.378 376.087 158.754 375.746 168.721C375.507 170.735 382.675 162.816 382.606 159.061V150.05C386.088 155.614 389.433 161.246 392.607 166.946C394.587 165.922 393.904 154.76 392.676 153.224C389.25 147.664 385.618 142.233 381.787 136.943C381.261 131.944 380.612 126.959 379.842 121.992C379.227 118.682 378.579 113.698 377.623 109.739C377.171 107.466 376.908 105.16 376.838 102.844C377.213 101.751 378.681 102.844 379.398 101.581C380.49 100.42 375.643 87.9274 373.22 84.3434C372.332 82.7733 370.762 83.3194 368.782 85.9136C366.939 87.6202 367.622 91.5114 368.305 95.232C370.114 104.687 371.718 114.347 373.015 123.904L364.925 112.026L364.55 110.182C364.55 110.012 364.174 102.434 363.833 100.625C363.765 99.9082 363.594 99.6693 364.345 99.7717C365.164 100.454 365.267 100.488 365.779 100.727C366.598 100.864 367.315 99.4986 366.803 98.2016L359.225 84.1045C358.884 83.7973 358.542 83.4901 358.167 83.4218V83.4218ZM121.521 83.6608C120.155 83.6608 118.585 84.5141 119.165 86.1866C118.824 87.1082 121.93 90.2485 122.476 91.9893C122.988 93.184 121.998 97.1093 123.022 97.4506C123.944 97.8602 125.241 94.72 125.753 91.8528C125.992 90.2826 125.787 84.8554 122.135 83.7632C121.934 83.7078 121.728 83.6735 121.521 83.6608V83.6608ZM391.106 83.6949C390.764 83.729 390.389 84.2752 389.774 85.5381C388.245 88.7446 387.767 92.3522 388.409 95.8464C391.891 119.33 394.485 142.029 394.997 162.85C394.724 164.83 394.621 165.854 393.7 168.346C391.652 170.974 389.399 174.285 387.249 175.855C385.132 177.459 380.592 178.927 379.125 180.122C374.414 182.852 374.414 185.958 378.203 186.095C384.757 185.31 392.505 184.798 397.83 176.742C399.696 172.959 400.776 168.837 401.004 164.625C401.516 142.677 400.731 121.207 397.42 105.335C397.215 103.799 396.533 100.215 396.806 99.7717C397.215 98.7136 399.366 99.9082 400.117 98.6453C401.243 97.4848 394.587 88.9856 392.266 85.3333C391.788 84.4117 391.515 83.6608 391.106 83.6949V83.6949ZM322.498 84.0704C322.19 84.1045 321.815 84.5141 321.064 85.504C319.255 91.4773 318.606 96.3584 319.289 100.079C323.999 124.587 328.812 146.91 328.027 170.223C330.246 170.223 332.806 165.103 333.932 160.085C334.547 153.122 333.523 148.855 333.352 144.794C331.931 131.268 330.087 117.79 327.822 104.38C326.73 98.5088 332.157 103.595 331.577 100.181C329.7 95.9146 325.023 89.6341 323.556 85.9136C323.01 84.8896 322.941 84.0021 322.463 84.0704H322.498ZM155.381 84.5482C154.801 84.6165 154.254 85.0944 154.05 85.9136C153.913 86.3914 154.289 87.2789 153.811 87.5178C153.538 87.7909 152.548 87.6202 152.582 86.1525C152.582 85.7429 152.241 85.265 152.036 84.9578C151.831 84.8213 151.694 84.7872 151.353 84.7872C150.875 84.7872 150.909 84.9237 150.67 85.2992C150.534 85.6746 150.397 86.0501 150.397 86.4938C150.363 87.0058 150.158 87.1765 149.783 87.2448C149.373 87.2448 149.442 87.313 149.1 87.0741C148.93 86.8693 148.691 86.7669 148.691 86.3914C148.68 85.9603 148.599 85.5338 148.452 85.1285C148.281 84.8896 148.008 84.7872 147.701 84.7189C145.926 84.7189 145.823 86.6986 145.926 87.4496C145.789 87.6202 145.721 91.1701 148.11 92.16C151.285 93.696 157.292 93.0474 157.019 87.8933C157.019 87.4154 156.951 85.9136 156.883 85.504C156.541 84.7189 155.961 84.4458 155.381 84.5482V84.5482ZM198.286 84.5824C197.263 84.6313 196.262 84.899 195.351 85.3674C193.235 87.4154 192.757 90.6581 194.395 92.7061C196.034 93.457 197.672 95.0954 196.58 95.9829C191.972 100.898 180.025 109.09 179.445 110.592L179.411 110.626V110.763H179.479V110.797H179.513L179.547 110.831C182.504 111.221 185.499 111.221 188.456 110.831H188.524C191.084 109.875 203.27 95.9146 203.27 95.9146C202.655 95.3685 202.075 94.993 201.427 94.4469C200.744 93.8666 200.812 93.2864 201.427 92.7061C204.465 90.9312 203.475 87.0741 201.905 85.2992C200.773 84.7763 199.532 84.5306 198.286 84.5824V84.5824ZM310.346 84.6165C310.039 84.6506 309.663 85.1626 309.049 86.4256C307.387 89.5995 306.587 93.1539 306.728 96.7338C309.868 118.374 310.824 137.284 312.872 158.856C313.043 160.973 312.735 164.011 311.336 165.239C306.216 170.598 298.775 177.186 290.719 180.258C289.832 181.214 292.87 185.378 296.795 185.378C303.315 184.627 309.083 180.941 314.408 171.281C315.842 169.028 318.333 164.181 318.436 160.427C319.097 142.032 317.607 123.623 313.998 105.574C313.799 104.286 313.881 102.971 314.237 101.717C314.647 101.205 316.08 101.717 316.831 100.489C317.958 99.328 313.862 89.9072 311.541 86.2208C311.063 85.3333 310.756 84.5824 310.346 84.6165V84.6165ZM136.71 85.2992C135.822 85.4016 134.969 86.1184 134.559 87.1082C134.389 90.5898 134.389 94.0373 134.764 97.2458C136.334 102.844 136.846 107.759 137.631 113.493C137.836 121.207 133.194 116.838 133.399 113.015C134.457 108.066 134.184 100.284 133.228 98.3381C132.477 96.3242 131.59 95.8464 129.747 96.1536C128.279 96.0853 124.524 100.181 123.466 107.008C123.466 107.008 122.579 110.49 122.203 113.596C121.691 117.111 119.336 119.603 117.732 113.118C116.332 108.407 115.479 96.768 113.124 99.4645C112.441 108.578 111.656 124.553 119.37 126.191C128.689 127.078 123.534 110.421 126.879 107.418C127.562 105.882 128.723 105.882 128.825 107.759V121.924C128.723 126.498 131.761 127.863 134.116 128.819C136.573 128.648 138.212 128.717 139.133 131.072L140.294 155.58C140.294 155.58 145.96 157.218 146.233 141.824C146.506 132.779 144.424 125.201 145.653 123.426C145.687 121.719 147.906 121.617 149.442 122.47C151.865 124.177 152.957 126.293 156.746 125.44C162.515 123.87 165.962 121.071 166.065 116.634C165.907 112.306 165.018 108.036 163.436 104.004C163.675 103.253 162.31 101.274 162.583 100.489C163.607 102.127 165.177 101.99 165.553 100.489C164.529 97.2458 163.027 94.1738 160.569 92.8085C158.521 91.0336 155.551 91.409 154.425 95.1637C153.947 99.4645 155.995 104.585 159.17 108.783C159.852 110.421 160.74 113.118 160.33 115.575C158.658 116.531 157.019 116.122 155.62 114.654C155.62 114.654 151.012 111.241 151.012 110.455C152.241 102.639 151.285 101.751 150.602 99.601C150.124 96.5973 148.725 95.6757 147.564 93.6277C146.438 92.3989 144.834 92.3989 144.151 93.6277C142.103 97.1434 143.059 104.687 144.492 108.066C145.585 111.172 147.223 113.118 146.438 113.118C145.789 114.893 144.492 114.483 143.537 112.435C142.407 108.112 141.856 103.659 141.898 99.1914C141.523 95.6757 141.045 88.2346 138.758 86.3232C138.143 85.504 137.393 85.1968 136.71 85.2992V85.2992ZM169.478 85.3333C169 85.4016 168.488 85.6746 167.908 85.8112C165.928 86.4256 164.051 88.1322 164.631 91.4773C166.986 105.711 168.522 116.599 170.843 130.833C171.219 132.54 169.819 134.724 168.01 134.485C164.938 132.437 164.187 128.205 158.965 128.375C155.176 128.444 150.841 132.574 150.329 136.533C149.585 139.595 149.585 142.79 150.329 145.852C152.991 149.06 156.132 148.719 158.965 148.002C161.252 147.046 163.163 144.759 163.948 145.306H163.982V145.34C164.494 146.227 163.948 153.634 153.162 159.334C146.54 162.338 141.25 163.021 138.417 157.628C136.642 154.214 138.553 141.38 134.218 144.316C121.418 177.357 164.221 181.965 169 145.681C169.307 144.657 170.229 143.633 170.911 143.906C171.185 144.043 171.458 144.418 171.56 145.169C170.536 178.005 138.451 180.224 132.989 169.916C131.624 167.492 131.249 162.065 131.112 158.822C130.873 156.843 130.361 155.75 129.781 155.272C128.484 154.283 126.743 156.843 126.367 161.28C125.821 164.83 125.992 165.82 125.992 169.233C127.699 195.174 169 184.013 175.724 162.611C179.069 151.552 175.656 143.155 176.782 142.131H176.885L176.919 142.097C176.974 142.078 177.031 142.067 177.09 142.063C181.186 146.5 186.92 142.609 188.183 141.107C188.729 140.322 190.094 139.844 191.05 140.834C194.225 143.121 199.857 142.029 201.017 138.001C201.7 134.007 202.28 129.946 202.382 125.713C200.334 126.362 198.628 126.839 197.945 127.556C197.789 127.716 197.682 127.918 197.638 128.137L197.092 131.652C197.084 131.746 197.061 131.839 197.023 131.925C196.916 132.07 196.776 132.187 196.614 132.267C195.897 132.676 194.566 132.437 194.532 131.379C193.508 126.874 189.446 126.259 186.988 133.291C185.282 134.656 182.278 134.895 181.937 132.847C182.346 128.171 180.469 127.556 176.68 129.775L173.028 102.298C174.632 102.298 176.066 103.424 177.499 101.615C175.963 96.768 172.652 86.8693 170.775 85.9477H170.741C170.619 85.8075 170.481 85.6815 170.331 85.5722L170.229 85.504C170 85.3762 169.739 85.317 169.478 85.3333V85.3333ZM297.171 85.4016C295.532 85.3674 293.723 86.4256 294.44 88.4736C294.03 89.5658 297.956 93.3546 298.57 95.4368C299.731 98.6453 297.717 101.683 298.911 102.127C299.97 102.605 301.506 98.816 302.086 95.3002C302.734 92.5013 300.721 86.6986 297.853 85.4698C297.629 85.4242 297.4 85.4013 297.171 85.4016V85.4016ZM197.774 88.9173C198.628 88.849 199.618 89.5317 200.095 90.4874C200.642 91.5114 200.369 92.5354 199.515 92.7061C198.662 92.8768 197.57 92.1941 197.023 91.1701C196.511 90.1461 196.785 89.1221 197.638 88.9173H197.774V88.9173ZM382.231 93.696C380.729 93.6277 379.125 94.7882 379.739 97.0069C379.398 98.2016 382.948 102.332 383.494 104.584C384.04 106.189 382.743 111.343 383.835 111.821C384.791 112.333 386.225 108.237 386.737 104.448C387.01 102.4 385.474 95.0954 382.879 93.7984C382.668 93.7383 382.45 93.7039 382.231 93.696V93.696ZM280.172 96.2218C280.321 96.8313 280.446 97.4461 280.548 98.065C280.889 99.4304 281.128 100.762 281.401 102.059C280.588 100.891 279.734 99.7528 278.841 98.6453C276.179 95.505 278.909 96.5973 280.206 96.2218H280.172ZM303.724 107.793C303.144 107.861 302.564 108.373 302.359 109.158C302.257 109.67 302.632 110.524 302.154 110.763C301.881 111.036 300.857 110.865 300.891 109.466C300.891 108.988 300.55 108.51 300.345 108.203C300.14 108.066 300.004 108.032 299.662 108.032C299.219 108.032 299.219 108.169 298.98 108.544C298.877 108.919 298.741 109.295 298.741 109.739C298.673 110.251 298.502 110.421 298.126 110.49C297.717 110.49 297.785 110.558 297.444 110.319C297.239 110.114 297 110.012 297 109.636C297 109.207 296.931 108.781 296.795 108.373C296.59 108.134 296.317 108.032 296.01 107.964C294.269 107.964 294.167 109.943 294.269 110.694C294.133 110.865 294.03 114.449 296.42 115.439C299.628 116.941 305.636 116.292 305.397 111.138L305.226 108.749C304.885 107.964 304.27 107.691 303.69 107.793H303.724ZM196.375 108.817C195.837 108.817 195.312 108.984 194.873 109.295C192.04 110.831 190.948 115.371 192.723 118.033C194.361 120.354 196.955 119.501 197.297 119.501C200.061 119.842 201.734 114.313 201.734 114.313C201.734 114.313 201.802 112.742 198.525 115.678C197.16 115.951 196.955 115.439 196.614 114.654C196.279 113.203 196.422 111.682 197.023 110.319C197.365 109.466 197.023 108.919 196.375 108.851V108.817ZM348.098 109.534C346.527 109.466 344.855 110.49 344.445 112.606C344.445 113.903 344.991 114.586 344.889 115.746C344.718 116.429 344.036 116.838 342.431 116.087C342.704 115.814 341.407 114.005 341.407 114.005C340.145 113.22 338.472 114.005 337.38 114.756C336.986 115.501 336.749 116.318 336.685 117.158C336.62 117.997 336.729 118.841 337.004 119.637C338.813 122.948 344.991 128.648 347.927 128.717C347.995 125.713 348.268 121.685 348.473 119.228C348.541 118.272 348.746 117.248 349.668 117.009C350.555 116.77 352.125 117.897 352.125 116.941C351.955 115.029 351.579 112.162 350.487 110.865C350.219 110.474 349.863 110.15 349.449 109.919C349.034 109.688 348.572 109.556 348.098 109.534V109.534ZM222.487 120.013L222.385 120.081L222.316 120.149C221.975 120.354 221.634 120.9 220.814 121.515C219.449 123.085 219.176 124.177 219.244 127.317C219.347 127.659 221.907 134.827 224.057 139.81C225.525 144.998 226.89 150.972 225.9 156.57C222.175 164.069 216.259 170.259 208.936 174.319C205.523 175.377 202.621 175.002 201.836 174.285C201.189 173.837 200.673 173.224 200.343 172.51C200.013 171.796 199.88 171.006 199.959 170.223V170.189C205.591 166.263 211.974 163.123 217.026 152.576C218.493 148.548 218.937 146.125 217.469 139.913C217.073 137.729 216.08 135.697 214.602 134.042V134.007C215.592 133.53 218.05 135.373 218.425 134.212C217.683 130.807 215.99 127.683 213.544 125.201C211.564 123.392 209.38 123.187 207.571 124.86C205.523 125.986 205.045 130.116 206.035 133.734C207.161 136.431 210.131 136.909 212.247 142.37C212.281 142.711 212.964 146.466 211.906 147.968C211.052 150.665 199.925 159.437 199.14 159.949L199.071 160.017H199.037V160.051H198.969H198.935L198.901 159.983V158.276C198.798 156.672 199.481 152.951 199.447 152.303V152.235H199.413C195.726 154.59 194.498 161.86 193.849 164.011C184.531 170.428 173.949 175.206 167.908 181.76C164.699 186.675 189.719 176.06 192.62 174.763L192.689 174.831C193.235 175.445 193.303 177.562 194.941 179.473C196.548 181.407 198.674 182.842 201.068 183.61C203.462 184.378 206.026 184.447 208.458 183.808C217.469 180.565 222.658 174.421 227.948 167.595C228.699 166.502 229.894 165.649 231.02 166.468C234.638 174.626 245.083 180.395 258.668 181.009C261.774 177.186 260.273 175.309 259.01 174.524C258.634 174.251 252.285 171.793 251.295 169.335C250.681 167.014 252.183 165.001 255.187 163.465C263.891 162.441 272.458 161.246 280.718 158.583C281.051 155.507 282.015 152.532 283.551 149.845C284.302 148.582 284.78 148.48 284.951 148.309L284.985 148.275L285.053 148.207V148.173L285.019 147.934L283.62 147.115L255.869 146.978C255.591 146.892 255.326 146.766 255.084 146.603V146.534H255.016V146.5L254.982 146.466V146.432L254.948 146.364V146.33V146.295V146.261V146.193V146.159V146.125C255.205 145.877 255.523 145.7 255.869 145.613C262.491 144.691 274.267 142.78 275.052 131.447C274.916 125.542 272.526 121.685 265.29 120.627C259.965 121.037 256.177 126.157 256.757 131.823C256.518 133.359 257.303 136.363 255.733 136.704C245.527 137.626 234.399 144.009 234.024 148.582H233.99L233.922 148.651H233.887H233.819H233.785H233.717C233.694 148.649 233.671 148.649 233.649 148.651H233.546C232.898 148.446 232.044 147.354 232.181 145.818C231.694 137.468 229.3 129.341 225.183 122.061C223.75 120.627 223.135 120.047 222.692 120.013C222.692 119.979 222.692 120.013 222.692 120.013H222.589H222.555H222.521H222.487ZM249.077 124.177C248.497 124.279 247.95 124.757 247.711 125.542C247.609 126.054 247.985 126.908 247.541 127.181C247.268 127.454 246.21 127.283 246.278 125.884C246.278 125.406 245.937 124.928 245.732 124.621C245.527 124.484 245.39 124.45 245.049 124.45C244.605 124.45 244.571 124.587 244.366 124.962C244.23 125.338 244.093 125.713 244.093 126.157C244.059 126.669 243.854 126.839 243.479 126.908C243.069 126.908 243.172 126.942 242.83 126.737C242.626 126.532 242.387 126.43 242.387 126.054C242.386 125.625 242.317 125.199 242.182 124.791C242.011 124.552 241.704 124.45 241.397 124.382C239.622 124.382 239.519 126.362 239.622 127.113C239.485 127.283 239.417 130.867 241.806 131.857C244.981 133.359 252.593 132.471 250.749 127.556L250.579 125.167C250.237 124.382 249.657 124.075 249.077 124.177V124.177ZM356.255 128.614H356.017C356.017 128.614 341.203 139.162 340.827 139.537C339.359 140.834 340.11 145.408 340.827 144.896C341.919 145.271 356.802 135.168 356.529 133.973C357.177 134.042 357.484 128.819 356.29 128.58L356.255 128.614ZM263.071 130.15C263.83 130.124 264.579 130.326 265.222 130.731C266.348 131.379 267.031 132.335 266.929 133.052V133.12L266.894 133.188L266.86 133.257V133.291L266.826 133.359C266.777 133.423 266.719 133.48 266.655 133.53C266.143 134.007 264.915 133.939 263.754 133.291C262.662 132.642 261.979 131.686 262.047 130.97V130.901L262.184 130.662L262.218 130.56C262.26 130.511 262.305 130.465 262.355 130.423C262.563 130.266 262.811 130.171 263.071 130.15V130.15ZM133.365 132.813C125.719 132.949 114.455 142.882 114.182 148.378C122.271 144.486 130.225 140.766 138.451 136.738C137.119 134.758 138.382 132.983 133.365 132.813V132.813ZM158.248 136.26C158.999 136.26 159.784 136.636 160.194 137.694C160.353 138.108 160.4 138.557 160.328 138.995C160.256 139.434 160.068 139.844 159.784 140.186L159.75 140.254C159.409 140.663 158.282 140.493 157.497 140.493C156.507 140.459 156.029 140.288 155.449 139.469C155.176 138.615 156.029 137.762 156.405 137.079C156.454 137.005 156.511 136.937 156.575 136.875C157.04 136.473 157.634 136.255 158.248 136.26V136.26ZM353.388 139.332C352.023 139.503 350.726 140.766 351.34 142.848C350.965 144.043 353.183 148.309 353.764 150.528C354.276 152.132 353.081 156.672 354.173 157.15C355.197 157.662 357.791 154.453 357.689 150.426C357.996 148.343 356.972 140.698 354.344 139.401C354.033 139.315 353.708 139.292 353.388 139.332ZM187.637 146.773C186.442 146.842 185.384 147.49 185.862 149.163C185.794 150.426 189.275 151.893 189.48 154.795C189.958 155.955 188.729 159.71 189.753 160.085C190.709 160.461 192.04 157.457 192.518 154.692C192.825 153.156 191.357 147.831 188.831 146.842C188.438 146.763 188.036 146.74 187.637 146.773V146.773ZM237.267 153.532H237.574C240.646 154.385 245.22 154.453 249.179 154.897C252.422 155.068 253.992 157.628 250.988 158.652C248.019 159.676 245.151 160.495 245.117 164.796C245.527 166.912 245.459 168.038 245.117 168.55C245.085 168.586 245.051 168.621 245.015 168.653V168.687H244.947V168.755H244.913L244.878 168.789C244.824 168.818 244.767 168.841 244.708 168.858H244.571C243.889 168.994 242.865 168.311 242.079 167.902C240.236 166.605 235.082 163.396 234.365 156.535C234.229 154.999 235.389 153.668 237.267 153.532V153.532ZM116.093 158.822C115.889 158.822 115.513 159.403 115.001 160.051C110.427 167.322 110.018 178.176 112.543 181.419C113.909 182.955 116.093 183.603 117.732 183.125C120.599 181.896 121.828 176.094 121.145 173.978C120.223 172.476 119.438 172.237 118.483 173.5C116.469 177.596 115.65 174.797 115.445 172.476C115.138 168.175 115.581 164.147 116.059 161.007C116.298 159.369 116.298 158.788 116.093 158.822V158.822ZM271.639 168.38C271.298 168.346 270.922 168.38 270.547 168.585C268.943 169.586 267.494 170.816 266.246 172.237C265.631 172.715 265.7 173.124 265.905 173.943C266.382 175.104 267.27 174.729 268.226 174.217C269.523 174.046 270.137 174.899 270.035 176.435C269.454 178.381 270.308 179.132 270.308 179.234C270.308 179.371 271.571 180.429 273.038 179.575C276.11 178.381 278.056 177.254 282.391 176.299C283.551 176.299 283.483 173.227 281.674 173.124C279.319 173.227 277.169 173.363 274.813 175.206C273.346 175.548 273.107 174.66 272.765 173.841C272.424 171.93 273.619 170.53 273.38 169.062C273.448 169.131 272.629 168.414 271.639 168.38V168.38ZM371.206 172.066C370.626 172.066 370.011 172.169 369.158 172.237C368.202 172.442 367.861 172.851 367.69 174.012C367.758 175.753 368.817 175.684 369.909 176.401C370.557 177.186 370.967 177.903 369.875 179.234C368.851 180.19 368.1 180.702 367.042 181.658C366.564 182.511 366.257 183.774 367.758 184.183C370.523 184.969 376.94 180.804 376.94 180.736C377.964 179.951 377.623 178.449 377.555 178.449C376.94 177.766 375.575 178.176 374.653 178.074C374.21 178.074 372.776 177.869 373.459 176.606C373.955 175.916 374.346 175.157 374.619 174.353C375.063 173.397 374.687 172.749 373.117 172.237C372.488 172.109 371.847 172.052 371.206 172.066V172.066ZM329.597 256.341C324.989 257.536 325.126 262.315 328.061 264.431C279.421 264.431 204.806 263.612 188.797 263.612C179.82 263.612 151.49 262.519 150.943 262.519C157.053 271.394 165.826 273.237 177.363 273.408C198.969 273.408 299.048 273.135 327.549 273.135C325.501 276.753 327.72 282.522 329.324 283.58L329.427 283.648L329.631 283.716H329.7C331.577 284.16 332.43 282.795 333.045 281.805C336.117 282.078 353.32 282.317 354.89 281.805L354.924 281.771C355.982 283.341 357.04 284.843 359.088 284.57C362.638 283.785 365.437 283.409 365.506 276.207C365.506 276.207 365.164 263.919 357.075 264.704C354.667 265.013 352.254 265.286 349.838 265.523C343.626 264.772 339.086 264.704 332.123 264.465C332.772 263.646 333.898 260.335 332.533 259.14C332.157 258.799 331.611 258.662 330.86 258.731H330.792V258.697H330.69C330.65 258.655 330.616 258.609 330.587 258.56L330.519 258.492C330.178 257.98 329.973 256.717 329.734 256.444V256.341H329.7L329.666 256.307H329.631L329.597 256.341ZM332.908 273.886C340.042 274.227 346.698 273.954 353.798 274.295C354.924 275.251 354.344 277.47 353.627 277.845C353.584 277.872 353.538 277.895 353.491 277.914H353.388H353.32L347.347 277.743C347.35 277.628 347.338 277.513 347.313 277.402C346.766 275.763 342.807 275.866 341.851 277.163V277.231L341.783 277.333C341.759 277.366 341.736 277.401 341.715 277.436V277.606L341.681 277.811C338.574 278.153 335.741 277.709 332.635 277.572C331.714 276.446 331.85 274.398 332.908 273.886V273.886Z" fill="white"/>
</g>
</svg>
