<svg width="16" height="16" viewBox="0 0 16 16" fill="none" xmlns="http://www.w3.org/2000/svg">
<path d="M1.52734 5.18673L1.52734 11.6734C1.52734 12.9401 2.42734 13.4601 3.52068 12.8334L5.08734 11.9401C5.42734 11.7467 5.99401 11.7267 6.34734 11.9067L9.84734 13.6601C10.2007 13.8334 10.7673 13.8201 11.1073 13.6267L13.994 11.9734C14.3607 11.7601 14.6673 11.2401 14.6673 10.8134L14.6673 4.32673C14.6673 3.06007 13.7673 2.54007 12.674 3.16673L11.1073 4.06007C10.7673 4.2534 10.2007 4.2734 9.84734 4.0934L6.34734 2.34673C5.99401 2.1734 5.42734 2.18673 5.08734 2.38007L2.20068 4.0334C1.82734 4.24673 1.52734 4.76673 1.52734 5.18673Z" stroke="white" stroke-width="1.5" stroke-linecap="round" stroke-linejoin="round"/>
<path d="M5.70703 2.66675L5.70703 11.3334" stroke="white" stroke-width="1.5" stroke-linecap="round" stroke-linejoin="round"/>
<path d="M10.4863 4.41333L10.4863 13.3333" stroke="white" stroke-width="2" stroke-linecap="round" stroke-linejoin="round"/>
</svg>
